<svg xmlns="http://www.w3.org/2000/svg" xmlns:xlink="http://www.w3.org/1999/xlink" viewBox="0 0 256 256"><defs><linearGradient id="a" x1="86.73" y1="91.28" x2="45.64" y2="121.69" gradientUnits="userSpaceOnUse"><stop offset="0" stop-color="#11998e"/><stop offset="1" stop-color="#38ef7d"/></linearGradient><linearGradient id="b" x1="111.99" y1="173.91" x2="65.96" y2="96.65" gradientUnits="userSpaceOnUse"><stop offset="0" stop-color="#1e83ec"/><stop offset="1" stop-color="#00cdff"/></linearGradient><linearGradient id="c" x1="88.78" y1="98.69" x2="47.69" y2="129.1" xlink:href="#a"/><linearGradient id="d" x1="129.02" y1="163.01" x2="82.58" y2="85.05" xlink:href="#b"/><linearGradient id="e" x1="183.56" y1="87.74" x2="140.7" y2="154.42" gradientUnits="userSpaceOnUse"><stop offset="0" stop-color="#ffc837"/><stop offset="1" stop-color="#ff6a08"/></linearGradient><linearGradient id="f" x1="180.26" y1="99.72" x2="218.21" y2="127.24" gradientUnits="userSpaceOnUse"><stop offset="0" stop-color="#be1e2d"/><stop offset="1" stop-color="#ff4d4d"/></linearGradient></defs><rect x="-4.72" y="-4.72" width="265.43" height="265.43" fill="#0b121e"/><path d="M68.75,101.94s-.06-.11-.19-.3l.54.85Z" fill="none"/><path d="M69.1,102.49l-.54-.85c-1-1.5-6.29-8.19-17.11-5.14l-.19.07L34.49,109.85s-9.71,10.42-1.8,21.44,19.83,5.25,23.47,3.36,21.39-16.79,22.28-17.54l0,0Z" fill="url(#a)"/><path d="M69.1,102.49l9.32,14.59,0,0,0,0Z" fill="url(#b)"/><path d="M69.1,102.49l9.32,14.59,0,0,0,0Z" fill="url(#c)"/><path d="M157.88,147.63l-14.77,23s-5.5,9.12-15.47,9.12-15.58-11.15-15.58-11.15L78.44,117.11l0,0L69.1,102.49l-.35-.55-.19-.3c-1-1.51-6.29-8.19-17.11-5.14l-.06,0c2.08-1.15,21.51-17,21.51-17s13.32-9.56,23.87,4.36c3.9,5.93,31.21,48.41,31.21,48.41l9.88,15.38S146.79,159.78,157.88,147.63Z" fill="url(#d)"/><path d="M187.51,101.53c1.77-2.76,4.12-3.91,6.15-5,5.35-2.22,11,0,11.07,0h0L183.17,79.48s-13.32-9.56-23.87,4.36C155.4,89.77,128,132.35,128,132.35l9.82,15.28h0l0,0c.53.7,9.24,11.74,20,0l19.67-30.53,0,0S185.74,104.3,187.51,101.53Z" fill="url(#e)"/><path d="M223.31,131.29c-7.91,11-19.83,5.25-23.47,3.36s-21.54-16.92-22.29-17.55l0,0s8.22-12.78,10-15.55,4.12-3.91,6.15-5c5.35-2.21,11,0,11.07,0h0l16.77,13.28S231.22,120.27,223.31,131.29Z" fill="url(#f)"/></svg>